<?xml version="1.0" encoding="iso-8859-1"?>
<!-- Generator: Adobe Illustrator 19.0.0, SVG Export Plug-In . SVG Version: 6.00 Build 0)  -->
<svg version="1.1" id="Layer_1" xmlns="http://www.w3.org/2000/svg" xmlns:xlink="http://www.w3.org/1999/xlink" x="0px" y="0px"
	 viewBox="0 0 508 508" style="enable-background:new 0 0 508 508;" xml:space="preserve">
<circle style="fill:#FFD05B;" cx="254" cy="254" r="254"/>
<circle style="fill:#54C0EB;" cx="260" cy="266.8" r="192.8"/>
<g>
	<path style="fill:#FFFFFF;" d="M388,132.8c-13.6,1.2-27.6,2-41.2-0.8c-12.4-2.8-24.8-8.8-37.6-7.6c-11.2,1.2-21.2,7.6-30.8,14
		c7.2,2.4,9.2,12.4,5.2,18.8c-4,6.4-11.6,9.2-19.2,10c0.8,7.2,0.4,16.4-6.4,18.4c-2.4,0.4-4.8,0-6.8,0c-4,0-8,1.2-10.4,4.4
		s-2.4,8,0.4,10.8c3.6,3.2,8.8,12,7.2,12.8c-18,12.4-34.8,30-36,51.6c-1.2,14.4,4.8,28.4,13.6,40c1.6,2,3.2,4.4,6,5.2
		c1.6,0.8,3.6,0.4,5.6,0.4c15.6-0.4,56.8,14,59.6,22.8c1.6,4.4,1.2,9.2,0.8,14c-0.8,12-3.2,24.4-0.4,36.4c2.8,12,12,23.2,24.4,23.6
		c13.2,0.4,23.2-11.6,27.6-24c1.6-4,2.8-8.4,6-11.2c2.4-2,7.2-11.6,6.4-14.4c-2.8-10-0.4-21.2,6-29.2c5.2-6,12-10,17.6-15.2
		c5.6-5.6,9.2-14,5.6-21.2c-2.8,1.6-6.8,0.4-8.4-2c-2-2.4-1.6-6.4,0.4-8.8c2.8-3.2,8-2.8,12-4.4c5.6-2,9.6-7.6,10.8-13.2
		c1.6-5.6,1.2-12,0.8-18c4.4-3.2,10.8-0.8,14.4,3.2c3.2,4.4,4.4,9.6,6,14.8c2.4,10.4,6,20.4,10.4,30c2.8-11.6,5.6-23.6,8-35.2
		c4,5.2,5.6,11.6,7.2,18c0-3.2,0.4-6.4,0.4-9.6c0-52.4-20.8-100-54.8-134.4C394.4,132.4,391.2,132.8,388,132.8z"/>
	<path style="fill:#FFFFFF;" d="M178.4,118.8c-10.4,3.2-21.2,6.4-30.4,12c-15.6,9.6-28,26.8-46.4,29.2c-0.8,0-1.6,0-2.4,0.4
		c-20.4,30.4-32,67.2-32,106.4c0,1.2,0,2,0,3.2c3.2,4.8,7.6,10,13.6,9.6c2.4-6-3.6-12-3.2-18.4c0-2.4,25.2-50,29.6-54.8
		c10-11.2,24.8-15.6,38-22.8c2-1.2,6.4-10.8,6-14.4c-0.4-11.6,3.6-23.2,11.6-31.2c3.6-3.6,10-6.4,12.8-2.4c1.6,2.4,6.8,8.4,8.4,8.4
		c29.2-2,57.6-16.8,76-39.6C232.4,103.2,205.2,110.8,178.4,118.8z"/>
	<path style="fill:#FFFFFF;" d="M160.8,322c-6-3.2-30.8-23.6-37.6-30.8c-6.4-7.2-16.4-13.2-25.6-10c-10.4,3.6-14,16-16.4,26.4
		c-0.8,3.6-1.6,7.2-0.4,10.8c1.2,3.6,5.2,6,8.4,4.4c0-4.4,6-7.2,9.2-4.4c-3.2,4-2.4,10.4,1.6,13.6c1.6,1.2,7.6,6.4,8.4,8.8
		c6,16.4,8,34,14.8,49.6c3.2,7.6,7.6,14.8,10.4,22.4c3.2,2.8,6.4,5.2,9.6,7.6c0-0.8,0.8-16,1.6-22.8s3.6-14,9.2-18
		c3.6-2.4,10-14.4,10-18c0.4-8.4,8-15.6,7.6-24.4C172,330.8,166.8,325.2,160.8,322z"/>
</g>
<path style="fill:#FF7058;" d="M326.8,168.8c-36.4,0-66.4,29.6-66.4,66.4c0,30,19.6,55.2,46.8,63.2l19.6,41.2l19.6-41.2
	c27.2-8.4,46.8-33.6,46.8-63.2C393.2,198.4,363.6,168.8,326.8,168.8z M326.8,286c-28,0-50.8-22.8-50.8-50.8s22.8-50.8,50.8-50.8
	s50.8,22.8,50.8,50.8S355.2,286,326.8,286z"/>
<g>
</g>
<g>
</g>
<g>
</g>
<g>
</g>
<g>
</g>
<g>
</g>
<g>
</g>
<g>
</g>
<g>
</g>
<g>
</g>
<g>
</g>
<g>
</g>
<g>
</g>
<g>
</g>
<g>
</g>
</svg>
